<?xml version="1.0" encoding="UTF-8" standalone="no"?>
<!-- Created with Inkscape (http://www.inkscape.org/) -->

<svg
   width="7.7198639mm"
   height="7.719882mm"
   viewBox="0 0 7.7198639 7.719882"
   version="1.1"
   id="svg7406"
   xmlns="http://www.w3.org/2000/svg"
   xmlns:svg="http://www.w3.org/2000/svg">
  <defs
     id="defs7403">
    <clipPath
       clipPathUnits="userSpaceOnUse"
       id="clipPath5447">
      <path
         id="path5449"
         style="color:#000000;display:none;fill:#ffffff;stroke-width:1;-inkscape-stroke:none"
         d="m 40.978696,20.188644 -0.0028,0.401269 1.395893,0.01451 0.0033,-0.399282 z m -2.932313,2.585598 -0.163853,1.499426 0.398103,0.04237 0.163855,-1.499425 z" />
      <path
         id="lpe_path-effect5451"
         style="color:#000000;fill:#ffffff;stroke-width:1;-inkscape-stroke:none"
         class="powerclip"
         d="M 33.079003,15.381362 H 47.370015 V 29.222179 H 33.079003 Z m 7.899693,4.807282 -0.0028,0.401269 1.395893,0.01451 0.0033,-0.399282 z m -2.932313,2.585598 -0.163853,1.499426 0.398103,0.04237 0.163855,-1.499425 z" />
    </clipPath>
    <clipPath
       clipPathUnits="userSpaceOnUse"
       id="clipPath5439">
      <path
         id="path5441"
         style="color:#000000;display:none;fill:#ffffff;stroke-width:1;-inkscape-stroke:none"
         d="m 0.53753992,-40.688636 0.29594245,0.26972 0.96072063,-1.05494 -0.2949567,-0.268523 z m 5.17261458,-3.283941 1.4403572,-0.44777 -0.1199281,-0.381966 -1.440357,0.447768 z" />
      <path
         id="lpe_path-effect5443"
         style="color:#000000;fill:#ffffff;stroke-width:1;-inkscape-stroke:none"
         class="powerclip"
         d="M -4.2871931,-49.567997 H 12.17293 v 14.990821 H -4.2871931 Z m 4.82473302,8.879361 0.29594245,0.26972 0.96072063,-1.05494 -0.2949567,-0.268523 z m 5.17261458,-3.283941 1.4403572,-0.44777 -0.1199281,-0.381966 -1.440357,0.447768 z" />
    </clipPath>
    <clipPath
       clipPathUnits="userSpaceOnUse"
       id="clipPath5455">
      <path
         id="path5457"
         style="color:#000000;display:none;fill:#ffffff;stroke-width:1;-inkscape-stroke:none"
         d="m -26.086955,31.23019 -0.05946,-0.395974 -1.410947,0.212396 0.05945,0.394425 z m -4.383918,2.80451 -0.385727,-0.11063 -0.389595,1.3405 0.38366,0.110644 z" />
      <path
         id="lpe_path-effect5459"
         style="color:#000000;display:inline;fill:#ffffff;stroke-width:1;-inkscape-stroke:none"
         class="powerclip"
         d="m -36.054604,26.065561 h 14.94084 v 14.404787 h -14.94084 z m 9.967649,5.164629 -0.05946,-0.395974 -1.410947,0.212396 0.05945,0.394425 z m -4.383918,2.80451 -0.385727,-0.11063 -0.389595,1.3405 0.38366,0.110644 z" />
    </clipPath>
    <clipPath
       clipPathUnits="userSpaceOnUse"
       id="clipPath5447-5">
      <path
         id="path5449-6"
         style="color:#000000;display:none;fill:#ffffff;stroke-width:1;-inkscape-stroke:none"
         d="m 40.978696,20.188644 -0.0028,0.401269 1.395893,0.01451 0.0033,-0.399282 z m -2.932313,2.585598 -0.163853,1.499426 0.398103,0.04237 0.163855,-1.499425 z" />
      <path
         id="lpe_path-effect5451-2"
         style="color:#000000;fill:#ffffff;stroke-width:1;-inkscape-stroke:none"
         class="powerclip"
         d="M 33.079003,15.381362 H 47.370015 V 29.222179 H 33.079003 Z m 7.899693,4.807282 -0.0028,0.401269 1.395893,0.01451 0.0033,-0.399282 z m -2.932313,2.585598 -0.163853,1.499426 0.398103,0.04237 0.163855,-1.499425 z" />
    </clipPath>
    <clipPath
       clipPathUnits="userSpaceOnUse"
       id="clipPath5439-1">
      <path
         id="path5441-2"
         style="color:#000000;display:none;fill:#ffffff;stroke-width:1;-inkscape-stroke:none"
         d="m 0.53753992,-40.688636 0.29594245,0.26972 0.96072063,-1.05494 -0.2949567,-0.268523 z m 5.17261458,-3.283941 1.4403572,-0.44777 -0.1199281,-0.381966 -1.440357,0.447768 z" />
      <path
         id="lpe_path-effect5443-7"
         style="color:#000000;fill:#ffffff;stroke-width:1;-inkscape-stroke:none"
         class="powerclip"
         d="M -4.2871931,-49.567997 H 12.17293 v 14.990821 H -4.2871931 Z m 4.82473302,8.879361 0.29594245,0.26972 0.96072063,-1.05494 -0.2949567,-0.268523 z m 5.17261458,-3.283941 1.4403572,-0.44777 -0.1199281,-0.381966 -1.440357,0.447768 z" />
    </clipPath>
    <clipPath
       clipPathUnits="userSpaceOnUse"
       id="clipPath5455-9">
      <path
         id="path5457-3"
         style="color:#000000;display:none;fill:#ffffff;stroke-width:1;-inkscape-stroke:none"
         d="m -26.086955,31.23019 -0.05946,-0.395974 -1.410947,0.212396 0.05945,0.394425 z m -4.383918,2.80451 -0.385727,-0.11063 -0.389595,1.3405 0.38366,0.110644 z" />
      <path
         id="lpe_path-effect5459-6"
         style="color:#000000;display:inline;fill:#ffffff;stroke-width:1;-inkscape-stroke:none"
         class="powerclip"
         d="m -36.054604,26.065561 h 14.94084 v 14.404787 h -14.94084 z m 9.967649,5.164629 -0.05946,-0.395974 -1.410947,0.212396 0.05945,0.394425 z m -4.383918,2.80451 -0.385727,-0.11063 -0.389595,1.3405 0.38366,0.110644 z" />
    </clipPath>
    <clipPath
       clipPathUnits="userSpaceOnUse"
       id="clipath_lpe_path-effect5451-9">
      <path
         id="path2551"
         style="color:#000000;display:none;fill:#ffffff;stroke-width:1;-inkscape-stroke:none"
         d="m 40.978696,20.188644 -0.0028,0.401269 1.395893,0.01451 0.0033,-0.399282 z m -2.932313,2.585598 -0.163853,1.499426 0.398103,0.04237 0.163855,-1.499425 z" />
      <path
         id="lpe_path-effect5451-9"
         style="color:#000000;fill:#ffffff;stroke-width:1;-inkscape-stroke:none"
         class="powerclip"
         d="M 33.079003,15.381362 H 47.370015 V 29.222179 H 33.079003 Z m 7.899693,4.807282 -0.0028,0.401269 1.395893,0.01451 0.0033,-0.399282 z m -2.932313,2.585598 -0.163853,1.499426 0.398103,0.04237 0.163855,-1.499425 z" />
    </clipPath>
    <clipPath
       clipPathUnits="userSpaceOnUse"
       id="clipath_lpe_path-effect5443-0">
      <path
         id="path2556"
         style="color:#000000;display:none;fill:#ffffff;stroke-width:1;-inkscape-stroke:none"
         d="m 0.53753992,-40.688636 0.29594245,0.26972 0.96072063,-1.05494 -0.2949567,-0.268523 z m 5.17261458,-3.283941 1.4403572,-0.44777 -0.1199281,-0.381966 -1.440357,0.447768 z" />
      <path
         id="lpe_path-effect5443-0"
         style="color:#000000;fill:#ffffff;stroke-width:1;-inkscape-stroke:none"
         class="powerclip"
         d="M -4.2871931,-49.567997 H 12.17293 v 14.990821 H -4.2871931 Z m 4.82473302,8.879361 0.29594245,0.26972 0.96072063,-1.05494 -0.2949567,-0.268523 z m 5.17261458,-3.283941 1.4403572,-0.44777 -0.1199281,-0.381966 -1.440357,0.447768 z" />
    </clipPath>
    <clipPath
       clipPathUnits="userSpaceOnUse"
       id="clipath_lpe_path-effect5459-0">
      <path
         id="path2561"
         style="color:#000000;display:none;fill:#ffffff;stroke-width:1;-inkscape-stroke:none"
         d="m -26.086955,31.23019 -0.05946,-0.395974 -1.410947,0.212396 0.05945,0.394425 z m -4.383918,2.80451 -0.385727,-0.11063 -0.389595,1.3405 0.38366,0.110644 z" />
      <path
         id="lpe_path-effect5459-0"
         style="color:#000000;display:inline;fill:#ffffff;stroke-width:1;-inkscape-stroke:none"
         class="powerclip"
         d="m -36.054604,26.065561 h 14.94084 v 14.404787 h -14.94084 z m 9.967649,5.164629 -0.05946,-0.395974 -1.410947,0.212396 0.05945,0.394425 z m -4.383918,2.80451 -0.385727,-0.11063 -0.389595,1.3405 0.38366,0.110644 z" />
    </clipPath>
  </defs>
  <circle
     style="display:inline;fill:#fffeff;fill-opacity:0.99786;stroke:none;stroke-width:6.04777;stroke-linejoin:round;stroke-miterlimit:4;stroke-dasharray:none;paint-order:stroke fill markers"
     id="path10004"
     cx="3.8599319"
     cy="3.859941"
     r="3.8364584" />
  <g
     id="layer4"
     transform="rotate(11.816028,113.40412,-146.28696)"
     style="display:inline">
    <g
       id="layer3"
       style="display:inline"
       transform="rotate(-11.816028,36.926805,23.10973)">
      <path
         style="fill:none;stroke:#00719d;stroke-width:0.250555px;stroke-linecap:butt;stroke-linejoin:miter;stroke-opacity:1"
         d="m 34.3111,24.253159 h 5.071176"
         id="path6518" />
      <path
         style="fill:none;stroke:#0eb48e;stroke-width:0.257378px;stroke-linecap:butt;stroke-linejoin:miter;stroke-opacity:1"
         d="m 34.073355,23.109732 h 5.706896"
         id="path6518-4" />
      <path
         style="fill:none;stroke:#8ac865;stroke-width:0.242218px;stroke-linecap:butt;stroke-linejoin:miter;stroke-opacity:1"
         d="m 34.3111,21.966305 h 5.054426"
         id="path6518-4-7" />
      <circle
         style="opacity:0.99741;fill:#8ac865;fill-opacity:1;stroke:#8ac865;stroke-width:0.146854;stroke-linecap:butt;stroke-linejoin:bevel;stroke-dasharray:none;stroke-opacity:1"
         id="path8908"
         cx="36.436852"
         cy="21.966305"
         r="0.40146139" />
      <circle
         style="opacity:0.99741;fill:#0eb48e;fill-opacity:1;stroke:#0eb48e;stroke-width:0.146854;stroke-linecap:butt;stroke-linejoin:bevel;stroke-dasharray:none;stroke-opacity:1"
         id="path8908-6"
         cx="35.462719"
         cy="23.109732"
         r="0.40146139" />
      <circle
         style="opacity:0.99741;fill:#0eb48e;fill-opacity:1;stroke:#0eb48e;stroke-width:0.146854;stroke-linecap:butt;stroke-linejoin:bevel;stroke-dasharray:none;stroke-opacity:1"
         id="path8908-88"
         cx="36.9268"
         cy="23.109732"
         r="0.40146139" />
      <circle
         style="opacity:0.99741;fill:#00719d;fill-opacity:1;stroke:#00719d;stroke-width:0.146854;stroke-linecap:butt;stroke-linejoin:bevel;stroke-dasharray:none;stroke-opacity:1"
         id="path8908-6-3"
         cx="35.937607"
         cy="24.253159"
         r="0.40146139" />
      <circle
         style="opacity:0.99741;fill:#00719d;fill-opacity:1;stroke:#00719d;stroke-width:0.146854;stroke-linecap:butt;stroke-linejoin:bevel;stroke-dasharray:none;stroke-opacity:1"
         id="path8908-88-1"
         cx="37.401688"
         cy="24.253159"
         r="0.40146139" />
      <circle
         style="opacity:0.99741;fill:#0eb48e;fill-opacity:1;stroke:#0eb48e;stroke-width:0.146854;stroke-linecap:butt;stroke-linejoin:bevel;stroke-dasharray:none;stroke-opacity:1"
         id="path8908-4"
         cx="38.390884"
         cy="23.109732"
         r="0.40146139" />
      <circle
         style="opacity:0.99741;fill:#8ac865;fill-opacity:1;stroke:#8ac865;stroke-width:0.146854;stroke-linecap:butt;stroke-linejoin:bevel;stroke-dasharray:none;stroke-opacity:1"
         id="path8908-8"
         cx="37.900257"
         cy="21.966305"
         r="0.40146139" />
    </g>
    <g
       id="layer6"
       transform="rotate(-11.816028,36.926805,23.10973)">
      <path
         style="display:inline;opacity:1;fill:#ff0000;fill-opacity:0;stroke:#00719d;stroke-width:1.33956;stroke-dasharray:none;stroke-opacity:1"
         id="path217-4"
         transform="rotate(15.987813,27.936009,16.098637)"
         clip-path="url(#clipath_lpe_path-effect5451-9)"
         d="m 41.700255,20.386458 a 3.1902192,3.1902184 0 0 1 -1.073071,2.362266 3.1902192,3.1902184 0 0 1 -2.473373,0.783718" />
      <path
         style="display:inline;opacity:1;fill:#ff0000;fill-opacity:0;stroke:#0eb48e;stroke-width:1.33956;stroke-dasharray:none;stroke-opacity:1"
         id="ellipse15143"
         transform="rotate(129.49333,4.4252168,-2.2352674)"
         clip-path="url(#clipath_lpe_path-effect5443-0)"
         d="m 6.3631882,-44.371544 a 3.1902192,3.1902184 0 0 1 -1.342782,3.630755 3.1902192,3.1902184 0 0 1 -3.8563697,-0.337444" />
      <path
         style="display:inline;opacity:1;fill:#ff0000;fill-opacity:0;stroke:#8ac865;stroke-width:1.33956;stroke-dasharray:none;stroke-opacity:1"
         id="path15204"
         transform="rotate(-89.622192,-0.80197046,-6.3114697)"
         clip-path="url(#clipath_lpe_path-effect5459-0)"
         d="m -26.815481,31.160116 a 3.1902192,3.1902184 0 0 1 -1.06835,2.860715 3.1902192,3.1902184 0 0 1 -2.983225,0.652256" />
    </g>
  </g>
</svg>
