<?xml version="1.0" encoding="UTF-8" standalone="no"?>
<!-- Created with Inkscape (http://www.inkscape.org/) -->

<svg
   width="24.453802mm"
   height="8.3199987mm"
   viewBox="0 0 24.453802 8.3199987"
   version="1.1"
   id="svg5"
   xmlns="http://www.w3.org/2000/svg"
   xmlns:svg="http://www.w3.org/2000/svg">
  <defs
     id="defs2">
    <clipPath
       clipPathUnits="userSpaceOnUse"
       id="clipPath5447">
      <path
         id="path5449"
         style="color:#000000;display:none;fill:#ffffff;stroke-width:1;-inkscape-stroke:none"
         d="m 40.978696,20.188644 -0.0028,0.401269 1.395893,0.01451 0.0033,-0.399282 z m -2.932313,2.585598 -0.163853,1.499426 0.398103,0.04237 0.163855,-1.499425 z" />
      <path
         id="lpe_path-effect5451"
         style="color:#000000;fill:#ffffff;stroke-width:1;-inkscape-stroke:none"
         class="powerclip"
         d="M 33.079003,15.381362 H 47.370015 V 29.222179 H 33.079003 Z m 7.899693,4.807282 -0.0028,0.401269 1.395893,0.01451 0.0033,-0.399282 z m -2.932313,2.585598 -0.163853,1.499426 0.398103,0.04237 0.163855,-1.499425 z" />
    </clipPath>
    <clipPath
       clipPathUnits="userSpaceOnUse"
       id="clipPath5439">
      <path
         id="path5441"
         style="color:#000000;display:none;fill:#ffffff;stroke-width:1;-inkscape-stroke:none"
         d="m 0.53753992,-40.688636 0.29594245,0.26972 0.96072063,-1.05494 -0.2949567,-0.268523 z m 5.17261458,-3.283941 1.4403572,-0.44777 -0.1199281,-0.381966 -1.440357,0.447768 z" />
      <path
         id="lpe_path-effect5443"
         style="color:#000000;fill:#ffffff;stroke-width:1;-inkscape-stroke:none"
         class="powerclip"
         d="M -4.2871931,-49.567997 H 12.17293 v 14.990821 H -4.2871931 Z m 4.82473302,8.879361 0.29594245,0.26972 0.96072063,-1.05494 -0.2949567,-0.268523 z m 5.17261458,-3.283941 1.4403572,-0.44777 -0.1199281,-0.381966 -1.440357,0.447768 z" />
    </clipPath>
    <clipPath
       clipPathUnits="userSpaceOnUse"
       id="clipPath5455">
      <path
         id="path5457"
         style="color:#000000;display:none;fill:#ffffff;stroke-width:1;-inkscape-stroke:none"
         d="m -26.086955,31.23019 -0.05946,-0.395974 -1.410947,0.212396 0.05945,0.394425 z m -4.383918,2.80451 -0.385727,-0.11063 -0.389595,1.3405 0.38366,0.110644 z" />
      <path
         id="lpe_path-effect5459"
         style="color:#000000;display:inline;fill:#ffffff;stroke-width:1;-inkscape-stroke:none"
         class="powerclip"
         d="m -36.054554,26.065567 h 14.940572 v 14.40478 h -14.940572 z m 9.967599,5.164623 -0.05946,-0.395974 -1.410947,0.212396 0.05945,0.394425 z m -4.383918,2.80451 -0.385727,-0.11063 -0.389595,1.3405 0.38366,0.110644 z" />
    </clipPath>
  </defs>
  <g
     id="layer1"
     style="display:none"
     transform="translate(-27.786119,-18.94973)">
    <text
       xml:space="preserve"
       style="font-style:normal;font-weight:normal;font-size:10.16px;line-height:1.25;font-family:sans-serif;display:inline;fill:#005576;fill-opacity:1;stroke:none;stroke-width:0.265;stroke-dasharray:none"
       x="40.521534"
       y="26.96973"
       id="text113-2"><tspan
         id="tspan111-5"
         style="font-style:normal;font-variant:normal;font-weight:bold;font-stretch:normal;font-size:10.16px;font-family:'DejaVu Sans Mono';-inkscape-font-specification:'DejaVu Sans Mono Bold';fill:#005576;fill-opacity:1;stroke-width:0.265;stroke-dasharray:none"
         x="40.521534"
         y="26.96973">2s</tspan></text>
    <text
       xml:space="preserve"
       style="font-style:normal;font-weight:normal;font-size:10.16px;line-height:1.25;font-family:sans-serif;display:inline;fill:#005576;fill-opacity:1;stroke:none;stroke-width:0.265;stroke-dasharray:none"
       x="27.639635"
       y="26.96973"
       id="text113"><tspan
         id="tspan111"
         style="font-style:normal;font-variant:normal;font-weight:bold;font-stretch:normal;font-size:10.16px;font-family:'DejaVu Sans Mono';-inkscape-font-specification:'DejaVu Sans Mono Bold';fill:#005576;fill-opacity:1;stroke-width:0.265;stroke-dasharray:none"
         x="27.639635"
         y="26.96973">l</tspan></text>
  </g>
  <g
     id="layer3">
    <g
       aria-label="l"
       transform="scale(1.000022,0.99997802)"
       id="text2576"
       style="font-size:10.1602px;line-height:1.25;display:inline;fill:#005576;stroke-width:0.265006">
      <path
         d="M 1.7734199,5.7035737 V 1.4172393 H 0.2999924 V 0.30100637 H 3.2270032 V 5.7035737 q 0,0.6548567 0.2034024,0.9277136 0.2034025,0.2728569 0.6895839,0.2728569 h 1.1608823 v 1.116233 H 3.7131846 q -1.0368563,0 -1.4883105,-0.5357918 Q 1.7734199,6.9487936 1.7734199,5.7035737 Z"
         style="font-weight:bold;font-family:'DejaVu Sans Mono';-inkscape-font-specification:'DejaVu Sans Mono Bold'"
         id="path2615" />
    </g>
    <g
       aria-label="2s"
       id="text2572"
       style="font-size:10.16px;line-height:1.25;fill:#005576;stroke-width:0.265">
      <path
         d="m 14.888539,6.729781 h 3.120429 V 8.0196247 H 13.306 V 6.7694685 l 0.79375,-0.8433594 q 1.413867,-1.503164 1.716484,-1.8504296 0.37207,-0.4266407 0.535781,-0.7540625 0.163711,-0.3323828 0.163711,-0.6548438 0,-0.4960937 -0.302617,-0.7639843 -0.297656,-0.2728516 -0.84832,-0.2728516 -0.391914,0 -0.883047,0.15875 Q 13.99557,1.9424764 13.46475,2.2401326 V 0.87587482 q 0.53082,-0.19347656 1.036835,-0.29269531 0.510977,-0.10417969 0.977305,-0.10417969 1.175742,0 1.845469,0.55066408 0.674687,0.5457031 0.674687,1.4932421 0,0.4365625 -0.148828,0.8185547 -0.143867,0.3819922 -0.501054,0.8483203 -0.26293,0.3373438 -1.443633,1.5180469 -0.639961,0.6399609 -1.016992,1.0219531 z"
         style="font-weight:bold;font-family:'DejaVu Sans Mono';-inkscape-font-specification:'DejaVu Sans Mono Bold'"
         id="path2610" />
      <path
         d="m 23.768617,2.6370076 v 1.27 Q 23.366781,3.6490388 22.930218,3.5200545 22.498617,3.3861092 22.062054,3.3861092 q -0.486172,0 -0.734218,0.1438671 -0.248047,0.1389063 -0.248047,0.4167188 0,0.396875 1.06164,0.6449218 l 0.05457,0.014883 0.416718,0.099219 q 0.79375,0.1885156 1.16086,0.6101953 0.37207,0.4167188 0.37207,1.1310937 0,0.8582422 -0.565547,1.2898438 -0.560586,0.4266406 -1.691679,0.4266406 -0.501055,0 -1.026915,-0.089297 -0.525859,-0.084336 -1.066601,-0.2579687 v -1.27 q 0.481211,0.2728516 0.977305,0.4167187 0.501054,0.1438672 0.967382,0.1438672 0.510977,0 0.773907,-0.1488281 0.262929,-0.1488281 0.262929,-0.4316016 0,-0.2778125 -0.188515,-0.4266406 -0.183555,-0.1488281 -0.883047,-0.3175 L 21.303031,5.6929451 Q 20.469593,5.5044294 20.087601,5.1025935 19.705609,4.7007576 19.705609,4.0260701 q 0,-0.8036719 0.58043,-1.2501562 0.580429,-0.4464844 1.632148,-0.4464844 0.471289,0 0.937617,0.079375 0.471289,0.074414 0.912813,0.2282031 z"
         style="font-weight:bold;font-family:'DejaVu Sans Mono';-inkscape-font-specification:'DejaVu Sans Mono Bold'"
         id="path2612" />
    </g>
  </g>
  <g
     id="layer4"
     transform="rotate(11.816028,114.59503,-120.62026)"
     style="display:inline">
    <g
       id="layer3-6"
       style="display:inline"
       transform="rotate(-11.816028,36.926805,23.10973)">
      <path
         style="fill:none;stroke:#00719d;stroke-width:0.250555px;stroke-linecap:butt;stroke-linejoin:miter;stroke-opacity:1"
         d="m 34.3111,24.253159 h 5.071176"
         id="path6518" />
      <path
         style="fill:none;stroke:#0eb48e;stroke-width:0.257378px;stroke-linecap:butt;stroke-linejoin:miter;stroke-opacity:1"
         d="m 34.073355,23.109732 h 5.706896"
         id="path6518-4" />
      <path
         style="fill:none;stroke:#8ac865;stroke-width:0.242218px;stroke-linecap:butt;stroke-linejoin:miter;stroke-opacity:1"
         d="m 34.3111,21.966305 h 5.054426"
         id="path6518-4-7" />
      <circle
         style="opacity:0.99741;fill:#8ac865;fill-opacity:1;stroke:#8ac865;stroke-width:0.146854;stroke-linecap:butt;stroke-linejoin:bevel;stroke-dasharray:none;stroke-opacity:1"
         id="path8908"
         cx="36.436852"
         cy="21.966305"
         r="0.40146139" />
      <circle
         style="opacity:0.99741;fill:#0eb48e;fill-opacity:1;stroke:#0eb48e;stroke-width:0.146854;stroke-linecap:butt;stroke-linejoin:bevel;stroke-dasharray:none;stroke-opacity:1"
         id="path8908-6"
         cx="35.462719"
         cy="23.109732"
         r="0.40146139" />
      <circle
         style="opacity:0.99741;fill:#0eb48e;fill-opacity:1;stroke:#0eb48e;stroke-width:0.146854;stroke-linecap:butt;stroke-linejoin:bevel;stroke-dasharray:none;stroke-opacity:1"
         id="path8908-88"
         cx="36.9268"
         cy="23.109732"
         r="0.40146139" />
      <circle
         style="opacity:0.99741;fill:#00719d;fill-opacity:1;stroke:#00719d;stroke-width:0.146854;stroke-linecap:butt;stroke-linejoin:bevel;stroke-dasharray:none;stroke-opacity:1"
         id="path8908-6-3"
         cx="35.937607"
         cy="24.253159"
         r="0.40146139" />
      <circle
         style="opacity:0.99741;fill:#00719d;fill-opacity:1;stroke:#00719d;stroke-width:0.146854;stroke-linecap:butt;stroke-linejoin:bevel;stroke-dasharray:none;stroke-opacity:1"
         id="path8908-88-1"
         cx="37.401688"
         cy="24.253159"
         r="0.40146139" />
      <circle
         style="opacity:0.99741;fill:#0eb48e;fill-opacity:1;stroke:#0eb48e;stroke-width:0.146854;stroke-linecap:butt;stroke-linejoin:bevel;stroke-dasharray:none;stroke-opacity:1"
         id="path8908-4"
         cx="38.390884"
         cy="23.109732"
         r="0.40146139" />
      <circle
         style="opacity:0.99741;fill:#8ac865;fill-opacity:1;stroke:#8ac865;stroke-width:0.146854;stroke-linecap:butt;stroke-linejoin:bevel;stroke-dasharray:none;stroke-opacity:1"
         id="path8908-8"
         cx="37.900257"
         cy="21.966305"
         r="0.40146139" />
    </g>
    <g
       id="layer6"
       transform="rotate(-11.816028,36.926805,23.10973)">
      <path
         style="display:inline;opacity:1;fill:#ff0000;fill-opacity:0;stroke:#00719d;stroke-width:1.33956;stroke-dasharray:none;stroke-opacity:1"
         id="path217-4"
         transform="rotate(15.987813,27.936009,16.098637)"
         clip-path="url(#clipPath5447)"
         d="m 41.700255,20.386458 a 3.1902192,3.1902184 0 0 1 -1.073071,2.362266 3.1902192,3.1902184 0 0 1 -2.473373,0.783718" />
      <path
         style="display:inline;opacity:1;fill:#ff0000;fill-opacity:0;stroke:#0eb48e;stroke-width:1.33956;stroke-dasharray:none;stroke-opacity:1"
         id="ellipse15143"
         transform="rotate(129.49333,4.4252168,-2.2352674)"
         clip-path="url(#clipPath5439)"
         d="m 6.3631882,-44.371544 a 3.1902192,3.1902184 0 0 1 -1.342782,3.630755 3.1902192,3.1902184 0 0 1 -3.8563697,-0.337444" />
      <path
         style="display:inline;opacity:1;fill:#ff0000;fill-opacity:0;stroke:#8ac865;stroke-width:1.33956;stroke-dasharray:none;stroke-opacity:1"
         id="path15204"
         transform="rotate(-89.622192,-0.80197046,-6.3114697)"
         clip-path="url(#clipPath5455)"
         d="m -26.815697,31.160116 a 3.1900001,3.1902184 0 0 1 -1.068278,2.860715 3.1900001,3.1902184 0 0 1 -2.98302,0.652256" />
    </g>
  </g>
</svg>
