<?xml version="1.0" encoding="UTF-8" standalone="no"?>
<!-- Created with Inkscape (http://www.inkscape.org/) -->

<svg
   width="24.453802mm"
   height="8.3199987mm"
   viewBox="0 0 24.453802 8.3199987"
   version="1.1"
   id="svg5"
   inkscape:version="1.1.2 (0a00cf5339, 2022-02-04)"
   sodipodi:docname="full.svg"
   inkscape:export-filename="lo2s-logo-v3.pdf"
   inkscape:export-xdpi="600"
   inkscape:export-ydpi="600"
   xmlns:inkscape="http://www.inkscape.org/namespaces/inkscape"
   xmlns:sodipodi="http://sodipodi.sourceforge.net/DTD/sodipodi-0.dtd"
   xmlns:xlink="http://www.w3.org/1999/xlink"
   xmlns="http://www.w3.org/2000/svg"
   xmlns:svg="http://www.w3.org/2000/svg">
  <sodipodi:namedview
     id="namedview7"
     pagecolor="#ffffff"
     bordercolor="#666666"
     borderopacity="1.0"
     inkscape:showpageshadow="2"
     inkscape:pageopacity="0.0"
     inkscape:pagecheckerboard="0"
     inkscape:deskcolor="#d1d1d1"
     inkscape:document-units="mm"
     showgrid="false"
     showguides="true"
     inkscape:zoom="2"
     inkscape:cx="100.25"
     inkscape:cy="59.5"
     inkscape:window-width="1918"
     inkscape:window-height="1059"
     inkscape:window-x="0"
     inkscape:window-y="19"
     inkscape:window-maximized="1"
     inkscape:current-layer="text2572"
     inkscape:pageshadow="2">
    <sodipodi:guide
       position="3.1393304,0.29999794"
       orientation="0,-1"
       id="guide1784"
       inkscape:locked="false" />
    <sodipodi:guide
       position="10.685948,8.0199977"
       orientation="0,-1"
       id="guide364"
       inkscape:locked="false" />
    <sodipodi:guide
       position="5.2807813,5.8000778"
       orientation="1,0"
       id="guide366"
       inkscape:locked="false" />
    <sodipodi:guide
       position="13.000674,4.2509878"
       orientation="1,0"
       id="guide368"
       inkscape:locked="false" />
    <sodipodi:guide
       position="9.1407252,3.4914679"
       orientation="-1,0"
       id="guide524"
       inkscape:locked="false"
       inkscape:label=""
       inkscape:color="rgb(0,134,229)" />
    <sodipodi:guide
       position="4.1475763,4.1599978"
       orientation="0,1"
       id="guide526"
       inkscape:locked="false"
       inkscape:label=""
       inkscape:color="rgb(0,134,229)" />
    <sodipodi:guide
       position="0.29999946,4.8799178"
       orientation="1,0"
       id="guide9284"
       inkscape:locked="false" />
    <sodipodi:guide
       position="24.153796,-0.43625203"
       orientation="1,0"
       id="guide9288"
       inkscape:locked="false" />
    <sodipodi:guide
       position="10.48595,8.3199977"
       orientation="0,1"
       id="guide9328"
       inkscape:locked="false"
       inkscape:label=""
       inkscape:color="rgb(0,134,229)" />
    <sodipodi:guide
       position="4.6603336e-07,2.3762079"
       orientation="-1,0"
       id="guide9330"
       inkscape:locked="false"
       inkscape:label=""
       inkscape:color="rgb(0,134,229)" />
    <sodipodi:guide
       position="6.4046013,-2.0471525e-06"
       orientation="0,1"
       id="guide9332"
       inkscape:locked="false"
       inkscape:label=""
       inkscape:color="rgb(0,134,229)" />
    <sodipodi:guide
       position="24.4538,-0.43625203"
       orientation="-1,0"
       id="guide9386"
       inkscape:locked="false"
       inkscape:label=""
       inkscape:color="rgb(0,134,229)" />
  </sodipodi:namedview>
  <defs
     id="defs2" />
  <g
     inkscape:label="text-raw"
     inkscape:groupmode="layer"
     id="layer1"
     style="display:none"
     transform="translate(-27.786119,-18.94973)">
    <text
       xml:space="preserve"
       style="font-style:normal;font-weight:normal;font-size:10.16px;line-height:1.25;font-family:sans-serif;display:inline;fill:#005576;fill-opacity:1;stroke:none;stroke-width:0.265;stroke-dasharray:none"
       x="40.521534"
       y="26.96973"
       id="text113-2"
       inkscape:label="Text-2S"><tspan
         sodipodi:role="line"
         id="tspan111-5"
         style="font-style:normal;font-variant:normal;font-weight:bold;font-stretch:normal;font-size:10.16px;font-family:'DejaVu Sans Mono';-inkscape-font-specification:'DejaVu Sans Mono Bold';fill:#005576;fill-opacity:1;stroke-width:0.265;stroke-dasharray:none"
         x="40.521534"
         y="26.96973">2s</tspan></text>
    <text
       xml:space="preserve"
       style="font-style:normal;font-weight:normal;font-size:10.16px;line-height:1.25;font-family:sans-serif;display:inline;fill:#005576;fill-opacity:1;stroke:none;stroke-width:0.265;stroke-dasharray:none"
       x="27.639635"
       y="26.96973"
       id="text113"
       inkscape:label="Text-L"><tspan
         sodipodi:role="line"
         id="tspan111"
         style="font-style:normal;font-variant:normal;font-weight:bold;font-stretch:normal;font-size:10.16px;font-family:'DejaVu Sans Mono';-inkscape-font-specification:'DejaVu Sans Mono Bold';fill:#005576;fill-opacity:1;stroke-width:0.265;stroke-dasharray:none"
         x="27.639635"
         y="26.96973">l</tspan></text>
  </g>
  <g
     inkscape:groupmode="layer"
     id="layer3"
     inkscape:label="text-path">
    <g
       aria-label="l"
       transform="scale(1.000022,0.99997802)"
       id="text2576"
       style="font-size:10.1602px;line-height:1.25;display:inline;fill:#005576;stroke-width:0.265006"
       inkscape:label="Text-L">
      <path
         d="M 1.7734199,5.7035737 V 1.4172393 H 0.2999924 V 0.30100637 H 3.2270032 V 5.7035737 q 0,0.6548567 0.2034024,0.9277136 0.2034025,0.2728569 0.6895839,0.2728569 h 1.1608823 v 1.116233 H 3.7131846 q -1.0368563,0 -1.4883105,-0.5357918 Q 1.7734199,6.9487936 1.7734199,5.7035737 Z"
         style="font-weight:bold;font-family:'DejaVu Sans Mono';-inkscape-font-specification:'DejaVu Sans Mono Bold'"
         id="path2615" />
    </g>
    <g
       aria-label="2s"
       id="text2572"
       style="font-size:10.16px;line-height:1.25;fill:#005576;stroke-width:0.265"
       inkscape:label="Text-2S">
      <path
         d="m 14.888539,6.729781 h 3.120429 V 8.0196247 H 13.306 V 6.7694685 l 0.79375,-0.8433594 q 1.413867,-1.503164 1.716484,-1.8504296 0.37207,-0.4266407 0.535781,-0.7540625 0.163711,-0.3323828 0.163711,-0.6548438 0,-0.4960937 -0.302617,-0.7639843 -0.297656,-0.2728516 -0.84832,-0.2728516 -0.391914,0 -0.883047,0.15875 Q 13.99557,1.9424764 13.46475,2.2401326 V 0.87587482 q 0.53082,-0.19347656 1.036835,-0.29269531 0.510977,-0.10417969 0.977305,-0.10417969 1.175742,0 1.845469,0.55066408 0.674687,0.5457031 0.674687,1.4932421 0,0.4365625 -0.148828,0.8185547 -0.143867,0.3819922 -0.501054,0.8483203 -0.26293,0.3373438 -1.443633,1.5180469 -0.639961,0.6399609 -1.016992,1.0219531 z"
         style="font-weight:bold;font-family:'DejaVu Sans Mono';-inkscape-font-specification:'DejaVu Sans Mono Bold'"
         id="path2610" />
      <path
         d="m 23.768617,2.6370076 v 1.27 Q 23.366781,3.6490388 22.930218,3.5200545 22.498617,3.3861092 22.062054,3.3861092 q -0.486172,0 -0.734218,0.1438671 -0.248047,0.1389063 -0.248047,0.4167188 0,0.396875 1.06164,0.6449218 l 0.05457,0.014883 0.416718,0.099219 q 0.79375,0.1885156 1.16086,0.6101953 0.37207,0.4167188 0.37207,1.1310937 0,0.8582422 -0.565547,1.2898438 -0.560586,0.4266406 -1.691679,0.4266406 -0.501055,0 -1.026915,-0.089297 -0.525859,-0.084336 -1.066601,-0.2579687 v -1.27 q 0.481211,0.2728516 0.977305,0.4167187 0.501054,0.1438672 0.967382,0.1438672 0.510977,0 0.773907,-0.1488281 0.262929,-0.1488281 0.262929,-0.4316016 0,-0.2778125 -0.188515,-0.4266406 -0.183555,-0.1488281 -0.883047,-0.3175 L 21.303031,5.6929451 Q 20.469593,5.5044294 20.087601,5.1025935 19.705609,4.7007576 19.705609,4.0260701 q 0,-0.8036719 0.58043,-1.2501562 0.580429,-0.4464844 1.632148,-0.4464844 0.471289,0 0.937617,0.079375 0.471289,0.074414 0.912813,0.2282031 z"
         style="font-weight:bold;font-family:'DejaVu Sans Mono';-inkscape-font-specification:'DejaVu Sans Mono Bold'"
         id="path2612" />
    </g>
  </g>
  <image
     preserveAspectRatio="none"
     inkscape:svg-dpi="8192"
     width="7.7198539"
     height="7.7198801"
     xlink:href="circle.svg"
     id="image2011"
     x="5.2808204"
     y="0.30000085"
     style="display:inline" />
  <g
     inkscape:groupmode="layer"
     id="layer2"
     inkscape:label="Text paths"
     style="display:inline" />
</svg>
